#format: frame checksums
#version: 2
#hash: MD5
#tb 0: 1/25
#media_type 0: video
#codec_id 0: h264
#dimensions 0: 352x288
#sar 0: 0/1
#stream#, dts,        pts, duration,     size, hash
0,         -3,          0,        1,    17825, 027097bbf99da9ed260b7e3717b21379
0,         -2,          1,        1,    15832, b4f7aad107ee4b070225891d2135eb30
0,         -1,          2,        1,    16050, 3282063a5aaeb04fe3e993176f75ddf7
0,          0,          3,        1,    16053, 18eb329f55db1b32c4407ee540082977
0,          1,          4,        1,    16119, 747b9f536c0b44f3d0af102d86df99cd
0,          2,          5,        1,    16151, e404be4fa239555a43e4f2dbfb7a5a5e
0,          3,          6,        1,    16308, d90d5205cbc133142071897cf0fa7857
0,          4,          7,        1,    16487, d817340232bc92cdbb49494a29ba87fe
0,          5,          8,        1,    16491, ef133f5c09ebd6aca6b6e25feead21a3
0,          6,          9,        1,    16711, 112f575a1f55e1148d6f6f515f4f2f1b
0,          7,         10,        1,    16825, d26ca33ecf6c534efbb89cd993dbb477
0,          8,         11,        1,    17201, 71c5b02dd68d90a75c0075e3cf638ada
0,          9,         12,        1,    17454, 74ae6c3dfeba0726ccb226bf3eb8d917
0,         10,         13,        1,    17586, ca5283368236f19053d0992355e3e6b5
0,         11,         14,        1,    17705, 4f5f2724bae3f49f9a648389a65d6d34
0,         12,         15,        1,    17961, 894e8a5d85c05df1d0395fc988d55889
0,         13,         16,        1,    18199, 9c5854d6eba3b07f306ec69508e1cc31
0,         14,         17,        1,    18343, 7b281b35922c0475dc1cb7c8e16e7fb3
0,         15,         18,        1,    18687, 86749513e7ad31642dbf052c2b648c87
0,         16,         19,        1,    18864, 022185a6f7757ff46acb158bb75ac8bb
0,         17,         20,        1,    18988, c179a04018334215e338345607daa1db
0,         18,         21,        1,    19315, aa2d82e2e796f478e0af7f4c47499049
0,         19,         22,        1,    19482, f35255d109167961ee88cbfc548f0198
0,         20,         23,        1,    19799, 3221d9a1421f9ef27643bd039a407005
0,         21,         24,        1,    20001, c1d92dea72d79719bedee13f21acff46
0,         22,         25,        1,    20202, 07ba9da300bc607085966e46db9606a0
0,         23,         26,        1,    20383, c0722c6c37d681e444066dc882c5eddd
0,         24,         27,        1,    20486, 492cd3018cbfd7bcf5cfae0ca455ff01
0,         25,         28,        1,    20640, 5311ce1fcf4089e1ab22d2b02f1449dd
0,         26,         29,        1,    20821, 4d1988d966991b6e2a8c8d0e72e83c60
0,         27,         30,        1,    20961, 67e6f8eab83db1e537d09d3067ee800a
0,         28,         31,        1,    21087, 608c34d9d519270eb67e0f681869d6e2
0,         29,         32,        1,    21287, 41f70de040ccd6ae67291016e3b6d009
0,         30,         33,        1,    21462, c36914c6be4309a11dfcc8f323a9157d
0,         31,         34,        1,    21603, a7d0ef716364a19aeacea2151934dfdd
0,         32,         35,        1,    21822, a801afc38a8845cb8fa3d70c4f6ee272
0,         33,         36,        1,    22109, a89b863a65f3c9f09a9c8871d44f4f24
0,         34,         37,        1,    22252, cf63d16c8d83d9cb3efe4fd8612d85bf
0,         35,         38,        1,    22460, 92a2315f91aa485c9ebae6b4b51c2f07
0,         36,         39,        1,    22545, cabfc05695ddc0b8412e3bfd40b5635d
0,         37,         40,        1,    22713, 9e9502c41a97964ed59b27aa87e5d13d
0,         38,         41,        1,    22950, 7d9bcebc471fe3f0b2d28c036d0d600b
0,         39,         42,        1,    23084, 207b4452abe6f56d8d4d8db3c7aacdb0
0,         40,         43,        1,    23127, 31a677b383d366ddda6476acf8bed9af
0,         41,         44,        1,    23205, f967f4b97f744cf5e1f8b3d6f29d6f27
0,         42,         45,        1,    23228, 2a914bf13dd0da71f5661e0df9a3d881
0,         43,         46,        1,    23272, 3d712af210040c840217187d0b610ac2
0,         44,         47,        1,    23311, 071e8ed8e91d99d8325e10237c8008c4
0,         45,         48,        1,    23321, 75cef8cbf5e52c863c676f7521ed507a
0,         46,         49,        1,    23395, 4b58380afbe7165020ab05254c5613f3
